<?xml version="1.0" encoding="utf-8"?>
<!-- Generator: Adobe Illustrator 16.0.0, SVG Export Plug-In . SVG Version: 6.00 Build 0)  -->
<!DOCTYPE svg PUBLIC "-//W3C//DTD SVG 1.1//EN" "http://www.w3.org/Graphics/SVG/1.1/DTD/svg11.dtd">
<svg version="1.1" id="Layer_1" xmlns="http://www.w3.org/2000/svg" xmlns:xlink="http://www.w3.org/1999/xlink" x="0px" y="0px"
	 width="213px" height="128px" viewBox="0 0 213 128" enable-background="new 0 0 213 128" xml:space="preserve">
<rect y="-2.758" fill="#3ABADC" width="213.926" height="133.369"/>
<g>
	<path fill="#F1F2F2" d="M-5.839,114.078c1.245-0.94,2.354-1.791,3.328-2.554c0.973-0.762,1.799-1.478,2.481-2.148
		c0.683-0.672,1.219-1.301,1.61-1.888c0.392-0.588,0.629-1.179,0.712-1.771c0.117-0.835-0.017-1.55-0.397-2.146
		c-0.382-0.595-1.035-0.956-1.961-1.086c-0.607-0.084-1.193,0.008-1.757,0.277c-0.564,0.27-1.092,0.617-1.585,1.044l-0.92-1.22
		c0.7-0.583,1.42-1.028,2.159-1.335c0.74-0.308,1.587-0.394,2.544-0.261c1.352,0.189,2.36,0.729,3.025,1.618s0.907,1.98,0.727,3.271
		c-0.095,0.684-0.339,1.35-0.732,1.999c-0.392,0.649-0.902,1.306-1.528,1.969c-0.626,0.664-1.356,1.344-2.188,2.04
		c-0.833,0.696-1.744,1.432-2.734,2.207c0.399,0.024,0.813,0.052,1.242,0.081c0.429,0.028,0.833,0.069,1.213,0.122l4.214,0.588
		l-0.226,1.617l-9.383-1.31L-5.839,114.078z"/>
	<path fill="#F1F2F2" d="M9.159,111.412l-2.611-5.75l2.027,0.283l1.14,2.643c0.125,0.327,0.256,0.659,0.395,0.996
		c0.139,0.336,0.286,0.671,0.442,1.002l0.091,0.012c0.208-0.279,0.419-0.563,0.629-0.852c0.209-0.288,0.42-0.572,0.63-0.853
		l1.684-2.249l1.958,0.273l-4.114,5.021l2.82,6.082l-2.027-0.283l-1.257-2.799c-0.151-0.361-0.302-0.724-0.453-1.085
		c-0.151-0.361-0.311-0.717-0.478-1.065l-0.092-0.013c-0.242,0.292-0.477,0.588-0.705,0.889c-0.228,0.302-0.457,0.614-0.688,0.938
		l-1.862,2.363l-1.959-0.273L9.159,111.412z"/>
	<path fill="#F1F2F2" d="M25.038,112.584l-4.145-0.578l0.197-1.412l4.145,0.579l0.62-4.441l1.48,0.206l-0.62,4.441l4.145,0.579
		l-0.197,1.411l-4.145-0.578l-0.62,4.44l-1.48-0.206L25.038,112.584z"/>
	<path fill="#F1F2F2" d="M37.055,118.14c0.377,0.517,0.833,0.991,1.37,1.422c0.535,0.431,1.235,0.706,2.102,0.827
		c0.88,0.122,1.635-0.017,2.263-0.416c0.629-0.4,1-1.01,1.115-1.829c0.059-0.425,0.035-0.827-0.076-1.206
		c-0.109-0.379-0.329-0.723-0.656-1.032c-0.328-0.309-0.779-0.573-1.353-0.792c-0.573-0.221-1.292-0.39-2.157-0.511l0.2-1.435
		c0.773,0.107,1.433,0.13,1.976,0.066s0.994-0.193,1.355-0.392c0.36-0.197,0.632-0.452,0.815-0.768
		c0.183-0.315,0.301-0.663,0.354-1.042c0.1-0.714-0.047-1.307-0.437-1.779c-0.392-0.472-0.974-0.763-1.748-0.87
		c-0.607-0.085-1.185-0.026-1.732,0.176s-1.071,0.493-1.572,0.872l-0.838-1.324c0.637-0.453,1.317-0.803,2.04-1.051
		c0.723-0.247,1.519-0.311,2.383-0.189c0.639,0.089,1.211,0.254,1.719,0.495c0.508,0.242,0.935,0.545,1.278,0.91
		c0.343,0.364,0.589,0.79,0.739,1.275s0.183,1.023,0.1,1.616c-0.123,0.88-0.468,1.567-1.032,2.062
		c-0.563,0.494-1.263,0.837-2.094,1.031l-0.013,0.091c0.426,0.168,0.814,0.381,1.166,0.639c0.35,0.258,0.648,0.563,0.894,0.914
		c0.245,0.352,0.419,0.743,0.52,1.176c0.103,0.432,0.12,0.898,0.049,1.399c-0.089,0.638-0.295,1.197-0.617,1.678
		c-0.323,0.481-0.725,0.871-1.208,1.167c-0.483,0.296-1.026,0.499-1.629,0.608c-0.604,0.109-1.239,0.117-1.908,0.024
		c-0.577-0.081-1.097-0.212-1.56-0.393c-0.461-0.181-0.877-0.393-1.245-0.638c-0.369-0.245-0.691-0.511-0.968-0.797
		c-0.278-0.286-0.519-0.583-0.724-0.891L37.055,118.14z"/>
	<path fill="#F1F2F2" d="M52.592,117.452l9.77,1.363l-0.197,1.412l-9.77-1.363L52.592,117.452z M53.269,112.602l9.77,1.364
		l-0.197,1.411l-9.77-1.363L53.269,112.602z"/>
	<path fill="#F1F2F2" d="M69.474,123.244c0.255,0.393,0.576,0.724,0.963,0.995c0.388,0.271,0.81,0.438,1.265,0.501
		c0.517,0.072,1.017,0.033,1.502-0.115c0.485-0.149,0.937-0.446,1.355-0.891c0.417-0.445,0.787-1.047,1.11-1.807
		s0.574-1.724,0.753-2.891c-0.537,0.514-1.131,0.896-1.786,1.145c-0.654,0.249-1.285,0.331-1.891,0.246
		c-1.261-0.176-2.211-0.688-2.85-1.535c-0.641-0.848-0.855-2.023-0.646-3.526c0.097-0.698,0.3-1.316,0.606-1.854
		c0.308-0.538,0.683-0.984,1.128-1.341c0.444-0.355,0.945-0.61,1.5-0.766c0.555-0.154,1.122-0.191,1.699-0.111
		c0.713,0.1,1.357,0.337,1.932,0.711c0.575,0.375,1.045,0.886,1.412,1.532c0.366,0.647,0.614,1.425,0.742,2.332
		c0.129,0.909,0.112,1.947-0.051,3.116c-0.204,1.457-0.528,2.677-0.975,3.66c-0.447,0.982-0.974,1.76-1.58,2.333
		s-1.26,0.962-1.962,1.165c-0.701,0.204-1.417,0.256-2.146,0.154c-0.774-0.108-1.433-0.349-1.977-0.718
		c-0.545-0.37-0.984-0.803-1.317-1.298L69.474,123.244z M73.262,119.061c0.471,0.065,0.996-0.012,1.577-0.232
		c0.579-0.221,1.162-0.646,1.745-1.277c0.077-1.443-0.105-2.569-0.55-3.374c-0.445-0.806-1.131-1.272-2.057-1.401
		c-0.35-0.049-0.69-0.019-1.023,0.09s-0.631,0.287-0.899,0.536c-0.267,0.249-0.493,0.562-0.677,0.938
		c-0.183,0.377-0.309,0.801-0.375,1.271c-0.134,0.956-0.019,1.738,0.346,2.346C71.713,118.566,72.352,118.934,73.262,119.061z"/>
</g>
<g>
	<circle fill="#F1F2F2" cx="179.731" cy="119.527" r="12.197"/>
	
		<line fill="none" stroke="#FFFFFF" stroke-width="2" stroke-miterlimit="10" x1="136.622" y1="106.398" x2="226.381" y2="106.398"/>
	<circle fill="#FFFFFF" cx="142.953" cy="102.115" r="3.352"/>
	<circle fill="#FFFFFF" cx="150.526" cy="102.115" r="3.352"/>
	<circle fill="#FFFFFF" cx="147.174" cy="96.14" r="3.352"/>
	<circle fill="#FFFFFF" cx="201.772" cy="102.115" r="3.352"/>
	
		<rect x="204.654" y="86.943" transform="matrix(0.8898 0.4564 -0.4564 0.8898 66.6612 -86.5208)" fill="#FFFFFF" width="15.643" height="15.643"/>
</g>
<g>
</g>
<g>
</g>
<g>
</g>
<g>
</g>
<g>
</g>
<g>
</g>
</svg>
