<?xml version="1.0" encoding="utf-8"?>
<!-- Generator: Adobe Illustrator 16.0.0, SVG Export Plug-In . SVG Version: 6.00 Build 0)  -->
<!DOCTYPE svg PUBLIC "-//W3C//DTD SVG 1.1//EN" "http://www.w3.org/Graphics/SVG/1.1/DTD/svg11.dtd">
<svg version="1.1" id="Layer_1" xmlns="http://www.w3.org/2000/svg" xmlns:xlink="http://www.w3.org/1999/xlink" x="0px" y="0px"
	 width="213px" height="128px" viewBox="0 0 213 128" enable-background="new 0 0 213 128" xml:space="preserve">
<rect y="-2.758" fill="#88BA72" width="213.926" height="133.369"/>
<path fill="#FFFFFF" d="M7.523,70.534l11.1-6.727l-21.66-35.725l-8.819,5.347l-2.439-4.025c1.982-1.756,3.62-3.425,4.914-5.01
	c1.293-1.578,2.353-3.171,3.18-4.784l4.79-2.904l26.264,43.323l10.033-6.084l3.133,5.167l-27.362,16.59L7.523,70.534z"/>
<path fill="#FFFFFF" d="M4.806,124.033c2.904-1.497,5.493-2.858,7.772-4.083c2.277-1.226,4.238-2.409,5.883-3.55
	c1.644-1.143,2.974-2.248,3.991-3.322c1.017-1.071,1.717-2.205,2.098-3.396c0.537-1.681,0.518-3.202-0.056-4.565
	c-0.576-1.361-1.796-2.342-3.66-2.937c-1.221-0.392-2.464-0.407-3.72-0.053c-1.261,0.355-2.475,0.885-3.641,1.59l-1.465-2.845
	c1.651-0.952,3.294-1.615,4.929-1.984c1.633-0.37,3.414-0.248,5.338,0.368c2.719,0.868,4.607,2.339,5.663,4.411
	c1.054,2.071,1.167,4.408,0.337,7.004c-0.439,1.374-1.18,2.663-2.219,3.861c-1.042,1.2-2.324,2.373-3.852,3.518
	c-1.53,1.146-3.276,2.287-5.239,3.427c-1.964,1.142-4.106,2.335-6.424,3.582c0.813,0.193,1.658,0.394,2.534,0.605
	c0.875,0.215,1.695,0.442,2.459,0.686l8.479,2.712l-1.041,3.254l-18.884-6.036L4.806,124.033z"/>
<path fill="#FFFFFF" d="M29.964,91.748c0.753,0.28,1.56,0.458,2.42,0.537c0.86,0.082,1.785-0.118,2.774-0.59
	c1.007-0.482,1.701-1.151,2.082-2.007c0.381-0.853,0.346-1.753-0.103-2.69c-0.233-0.483-0.538-0.889-0.915-1.206
	c-0.377-0.322-0.847-0.53-1.404-0.627c-0.559-0.097-1.213-0.061-1.966,0.107c-0.752,0.167-1.623,0.49-2.612,0.962l-0.786-1.641
	c0.884-0.421,1.589-0.857,2.114-1.299c0.525-0.446,0.907-0.895,1.147-1.352c0.239-0.456,0.346-0.913,0.319-1.372
	c-0.026-0.455-0.142-0.9-0.351-1.335c-0.391-0.815-0.955-1.335-1.691-1.56c-0.738-0.224-1.548-0.122-2.434,0.302
	c-0.695,0.331-1.258,0.793-1.69,1.387c-0.434,0.588-0.779,1.259-1.042,2.003l-1.794-0.806c0.351-0.917,0.82-1.754,1.407-2.514
	c0.584-0.764,1.373-1.38,2.362-1.854c0.729-0.347,1.444-0.572,2.144-0.674c0.698-0.099,1.355-0.078,1.967,0.068
	c0.614,0.143,1.167,0.417,1.66,0.823c0.493,0.405,0.9,0.943,1.226,1.623c0.48,1.006,0.599,1.963,0.35,2.873
	c-0.249,0.908-0.74,1.754-1.478,2.531l0.05,0.104c0.562-0.119,1.117-0.166,1.663-0.14c0.546,0.026,1.069,0.141,1.57,0.336
	c0.501,0.198,0.953,0.487,1.36,0.87s0.748,0.858,1.022,1.433c0.349,0.729,0.521,1.456,0.517,2.185
	c-0.003,0.729-0.156,1.415-0.455,2.061s-0.727,1.235-1.283,1.767c-0.558,0.533-1.216,0.982-1.98,1.349
	c-0.661,0.315-1.296,0.538-1.903,0.673c-0.611,0.129-1.192,0.194-1.748,0.194c-0.556-0.001-1.078-0.056-1.567-0.163
	c-0.489-0.109-0.948-0.251-1.374-0.43L29.964,91.748z"/>
<path fill="#FFFFFF" d="M56.744,119.771l-3.19-1.021l-2.07,6.453l-2.86-0.915l2.069-6.456l-10.522-3.375l0.634-1.979l14.81-11.751
	l3.374,1.081l-4.659,14.521l3.19,1.024L56.744,119.771z M51.47,115.413l2.177-6.786c0.202-0.633,0.463-1.379,0.779-2.235
	c0.315-0.856,0.598-1.597,0.851-2.217l-0.146-0.045c-0.474,0.47-0.956,0.92-1.446,1.355c-0.492,0.436-0.997,0.877-1.52,1.332
	l-8.028,6.241L51.47,115.413z"/>
<path fill="#FFFFFF" d="M69.066,106.331c1.06,0.406,2.212,0.661,3.458,0.763c1.244,0.106,2.579-0.179,4.008-0.845
	c0.739-0.347,1.372-0.811,1.897-1.381c0.524-0.569,0.917-1.21,1.175-1.921c0.257-0.715,0.367-1.479,0.324-2.3
	c-0.038-0.817-0.256-1.646-0.65-2.487c-0.788-1.688-1.874-2.778-3.256-3.281c-1.388-0.506-2.869-0.385-4.452,0.353
	c-0.841,0.395-1.502,0.856-1.981,1.395c-0.48,0.535-0.978,1.215-1.49,2.046l-2.186-0.283l-4.683-12.12l12.204-5.703l1.268,2.716
	l-9.448,4.414l2.726,7.535c0.445-0.58,0.918-1.098,1.421-1.551c0.503-0.449,1.124-0.849,1.866-1.194
	c1.044-0.49,2.097-0.795,3.159-0.921c1.063-0.119,2.083-0.031,3.062,0.272c0.981,0.305,1.892,0.844,2.736,1.613
	c0.84,0.771,1.574,1.82,2.19,3.144c0.622,1.328,0.94,2.61,0.957,3.844c0.019,1.237-0.191,2.385-0.63,3.438
	c-0.436,1.064-1.06,2.006-1.869,2.837c-0.81,0.827-1.749,1.492-2.82,1.993c-0.971,0.451-1.902,0.768-2.793,0.954
	c-0.893,0.186-1.736,0.275-2.529,0.271c-0.794,0-1.546-0.077-2.252-0.224c-0.708-0.156-1.367-0.348-1.978-0.595L69.066,106.331z"/>
<path fill="#FFFFFF" d="M97.367,109.674c-0.356-0.408-0.778-0.733-1.268-0.973c-0.489-0.241-1-0.36-1.534-0.36
	c-0.586,0-1.146,0.124-1.681,0.373c-0.533,0.248-1.005,0.658-1.413,1.227c-0.41,0.569-0.739,1.312-0.988,2.228
	s-0.382,2.052-0.399,3.402c0.533-0.66,1.155-1.18,1.867-1.562c0.711-0.382,1.413-0.575,2.106-0.575c1.477,0,2.655,0.438,3.536,1.31
	c0.88,0.87,1.32,2.186,1.32,3.948c0,0.816-0.134,1.559-0.399,2.228c-0.267,0.664-0.632,1.239-1.094,1.719
	c-0.462,0.48-0.997,0.855-1.601,1.12c-0.604,0.268-1.253,0.399-1.947,0.399c-0.836,0-1.609-0.169-2.32-0.506
	c-0.711-0.336-1.33-0.849-1.854-1.534c-0.524-0.684-0.938-1.537-1.241-2.56c-0.302-1.022-0.453-2.219-0.453-3.588
	c0-1.707,0.177-3.161,0.533-4.361c0.356-1.201,0.836-2.178,1.44-2.934c0.604-0.757,1.294-1.309,2.068-1.653
	c0.774-0.348,1.587-0.521,2.441-0.521c0.924,0,1.721,0.174,2.387,0.521c0.667,0.345,1.24,0.776,1.72,1.293L97.367,109.674z
	 M93.872,122.426c0.428,0,0.818-0.09,1.174-0.268c0.355-0.178,0.667-0.432,0.934-0.762c0.267-0.328,0.476-0.719,0.626-1.173
	c0.151-0.453,0.227-0.964,0.227-1.532c0-1.12-0.257-2.001-0.772-2.642c-0.517-0.641-1.308-0.962-2.375-0.962
	c-0.533,0-1.116,0.174-1.747,0.521c-0.632,0.347-1.232,0.92-1.801,1.719c0.142,1.674,0.529,2.939,1.161,3.804
	C91.929,121.993,92.788,122.426,93.872,122.426z"/>
<path fill="#FFFFFF" d="M92.986,90.864c0.297-1.611,0.694-3.142,1.19-4.588c0.496-1.447,1.124-2.841,1.875-4.183
	c0.754-1.344,1.654-2.717,2.703-4.119l-10.295-0.233l0.053-2.298l13.303,0.301l-0.037,1.647c-1.266,1.528-2.297,2.997-3.093,4.402
	c-0.802,1.406-1.444,2.847-1.93,4.313c-0.488,1.468-0.85,3.024-1.094,4.668c-0.242,1.651-0.429,3.477-0.562,5.483l-2.751-0.063
	C92.477,94.253,92.692,92.477,92.986,90.864z"/>
<path fill="#FFFFFF" d="M69.58,128.512c0-0.248,0.042-0.479,0.126-0.689c0.084-0.213,0.192-0.404,0.324-0.576
	c0.132-0.172,0.284-0.324,0.456-0.457c0.172-0.131,0.35-0.245,0.534-0.342V126.4c-0.28-0.201-0.528-0.442-0.744-0.727
	c-0.216-0.283-0.324-0.63-0.324-1.038c0-0.296,0.056-0.563,0.168-0.804c0.112-0.24,0.264-0.446,0.456-0.618
	c0.192-0.172,0.42-0.306,0.684-0.401c0.264-0.097,0.552-0.145,0.864-0.145c0.336,0,0.636,0.05,0.9,0.15
	c0.264,0.1,0.49,0.239,0.678,0.42c0.188,0.18,0.332,0.396,0.432,0.647s0.15,0.526,0.15,0.822c0,0.2-0.034,0.392-0.102,0.575
	c-0.068,0.185-0.152,0.356-0.252,0.517s-0.212,0.304-0.336,0.433c-0.124,0.127-0.246,0.235-0.366,0.323v0.048
	c0.168,0.096,0.332,0.207,0.492,0.33c0.16,0.125,0.302,0.264,0.426,0.42s0.224,0.334,0.3,0.534s0.114,0.429,0.114,0.685
	c0,0.287-0.06,0.556-0.18,0.804s-0.288,0.464-0.504,0.647c-0.216,0.185-0.476,0.328-0.78,0.432c-0.304,0.104-0.64,0.156-1.008,0.156
	c-0.36,0-0.694-0.052-1.002-0.156c-0.308-0.104-0.572-0.249-0.792-0.438c-0.22-0.188-0.394-0.41-0.522-0.666
	S69.58,128.816,69.58,128.512z M70.468,128.416c0,0.216,0.042,0.412,0.126,0.588s0.2,0.33,0.348,0.462s0.322,0.233,0.522,0.306
	c0.2,0.072,0.416,0.108,0.648,0.108c0.448,0,0.81-0.124,1.086-0.372c0.276-0.248,0.414-0.572,0.414-0.973
	c0-0.247-0.056-0.459-0.168-0.635c-0.112-0.176-0.264-0.33-0.456-0.463c-0.192-0.132-0.414-0.252-0.666-0.359
	c-0.252-0.108-0.514-0.219-0.786-0.33c-0.304,0.208-0.558,0.449-0.762,0.726S70.468,128.064,70.468,128.416z M72.628,126.292
	c0.256-0.231,0.454-0.476,0.594-0.732c0.14-0.256,0.21-0.523,0.21-0.804c0-0.385-0.116-0.706-0.348-0.967
	c-0.232-0.26-0.56-0.389-0.984-0.389c-0.36,0-0.656,0.111-0.888,0.336c-0.232,0.224-0.348,0.523-0.348,0.899
	c0,0.231,0.048,0.431,0.144,0.595c0.096,0.164,0.226,0.31,0.39,0.438c0.164,0.128,0.352,0.242,0.564,0.342
	S72.396,126.203,72.628,126.292z"/>
<path fill="#FFFFFF" d="M112.058,128.657c0.44,0.229,0.915,0.366,1.416,0.414c0.502,0.047,0.981-0.021,1.438-0.201
	c0.516-0.205,0.959-0.504,1.331-0.898c0.371-0.395,0.634-0.906,0.788-1.538c0.153-0.633,0.177-1.387,0.077-2.262
	c-0.102-0.872-0.376-1.898-0.826-3.074c-0.226,0.759-0.576,1.425-1.052,1.999c-0.475,0.577-1.017,0.986-1.623,1.227
	c-1.262,0.501-2.413,0.526-3.451,0.078c-1.039-0.45-1.858-1.426-2.456-2.93c-0.277-0.7-0.415-1.379-0.412-2.039
	c0-0.659,0.113-1.271,0.338-1.837c0.225-0.563,0.555-1.063,0.986-1.499c0.435-0.437,0.94-0.769,1.517-0.997
	c0.715-0.284,1.436-0.402,2.167-0.358c0.729,0.044,1.435,0.269,2.114,0.677c0.681,0.407,1.318,0.996,1.918,1.771
	c0.597,0.772,1.127,1.747,1.591,2.915c0.579,1.458,0.92,2.76,1.025,3.907c0.103,1.145,0.024,2.144-0.236,2.994
	c-0.261,0.853-0.662,1.555-1.204,2.113c-0.546,0.559-1.181,0.982-1.911,1.272c-0.775,0.308-1.511,0.432-2.209,0.376
	c-0.699-0.055-1.335-0.226-1.905-0.51L112.058,128.657z M113.365,122.783c0.471-0.187,0.918-0.535,1.338-1.046
	c0.422-0.511,0.738-1.212,0.946-2.104c-0.688-1.377-1.451-2.323-2.287-2.837c-0.837-0.512-1.72-0.584-2.646-0.216
	c-0.351,0.139-0.649,0.347-0.9,0.623c-0.252,0.275-0.433,0.597-0.551,0.97c-0.114,0.372-0.16,0.78-0.132,1.226
	c0.027,0.447,0.135,0.905,0.321,1.376c0.38,0.957,0.898,1.62,1.558,1.994C111.669,123.14,112.454,123.145,113.365,122.783z"/>
<path fill="#FFFFFF" d="M125.458,116.502l3.186,2.228l7.173-10.254l-2.53-1.771l0.809-1.154c0.719,0.331,1.378,0.578,1.965,0.74
	c0.589,0.165,1.156,0.263,1.696,0.295l1.376,0.96l-8.699,12.434l2.88,2.015l-1.04,1.484l-7.852-5.492L125.458,116.502z"/>
<path fill="#FFFFFF" d="M138.787,128.425c-1.413-0.988-2.071-2.381-1.98-4.182c0.089-1.798,0.951-3.869,2.589-6.211
	c1.641-2.343,3.28-3.848,4.921-4.521c1.638-0.672,3.163-0.516,4.573,0.472c1.397,0.978,2.061,2.351,1.991,4.121
	c-0.069,1.772-0.923,3.828-2.562,6.17c-1.638,2.343-3.288,3.863-4.948,4.563C141.71,129.541,140.185,129.402,138.787,128.425z
	 M139.795,126.984c0.404,0.286,0.854,0.429,1.336,0.436c0.488,0,1.015-0.149,1.584-0.453c0.57-0.306,1.177-0.78,1.822-1.424
	c0.646-0.641,1.326-1.473,2.036-2.489c0.713-1.018,1.257-1.937,1.636-2.758c0.377-0.816,0.607-1.54,0.688-2.164
	c0.08-0.626,0.034-1.164-0.142-1.61c-0.173-0.448-0.468-0.813-0.873-1.096c-0.407-0.286-0.854-0.438-1.343-0.453
	c-0.485-0.018-1.01,0.121-1.568,0.412c-0.562,0.29-1.162,0.754-1.801,1.387c-0.639,0.637-1.317,1.464-2.028,2.48
	c-1.425,2.036-2.209,3.691-2.353,4.968C138.644,125.493,138.979,126.414,139.795,126.984z"/>
<path fill="#FFFFFF" d="M111.445,104.1l-1.801,0.237l0.481,3.644l-1.615,0.213l-0.481-3.643l-5.941,0.785l-0.147-1.117l4.535-9.194
	l1.905-0.252l1.083,8.198l1.801-0.238L111.445,104.1z M107.849,103.184l-0.506-3.83c-0.047-0.358-0.094-0.783-0.137-1.276
	c-0.044-0.492-0.076-0.921-0.096-1.283l-0.082,0.011c-0.125,0.34-0.256,0.674-0.396,1c-0.138,0.327-0.284,0.663-0.434,1.006
	l-2.489,4.92L107.849,103.184z"/>
<path fill="#FFFFFF" d="M113.2,106.543c0.862-1.126,1.626-2.14,2.295-3.042c0.666-0.902,1.217-1.73,1.65-2.482
	c0.436-0.753,0.752-1.433,0.954-2.042c0.199-0.609,0.265-1.184,0.193-1.722c-0.1-0.759-0.39-1.354-0.869-1.781
	c-0.477-0.429-1.136-0.588-1.979-0.477c-0.552,0.073-1.042,0.297-1.47,0.669c-0.43,0.373-0.808,0.805-1.135,1.299l-1.102-0.846
	c0.471-0.679,0.993-1.244,1.566-1.691s1.295-0.729,2.164-0.845c1.228-0.162,2.241,0.066,3.037,0.684
	c0.799,0.618,1.276,1.514,1.431,2.687c0.082,0.621,0.029,1.264-0.156,1.928c-0.185,0.662-0.473,1.36-0.86,2.093
	c-0.389,0.732-0.861,1.503-1.423,2.314c-0.559,0.812-1.179,1.677-1.857,2.596c0.354-0.075,0.724-0.153,1.108-0.231
	c0.382-0.078,0.746-0.142,1.09-0.188l3.83-0.506l0.194,1.471l-8.529,1.127L113.2,106.543z"/>
<g>
	<path fill="#FFFFFF" d="M110.334,84.383c0.703-0.408,1.332-0.779,1.885-1.113s1.025-0.652,1.42-0.957
		c0.396-0.305,0.714-0.598,0.953-0.877c0.24-0.279,0.4-0.57,0.48-0.871c0.113-0.426,0.09-0.805-0.07-1.137s-0.476-0.561-0.947-0.688
		c-0.311-0.082-0.619-0.07-0.928,0.033c-0.31,0.105-0.605,0.252-0.887,0.441l-0.4-0.689c0.398-0.258,0.801-0.443,1.203-0.557
		c0.4-0.111,0.848-0.104,1.334,0.025c0.688,0.184,1.176,0.527,1.465,1.029s0.346,1.084,0.172,1.74
		c-0.094,0.348-0.262,0.678-0.506,0.99c-0.244,0.311-0.551,0.619-0.916,0.924c-0.366,0.303-0.787,0.609-1.262,0.918
		s-0.994,0.633-1.555,0.971c0.205,0.039,0.418,0.078,0.639,0.121c0.22,0.043,0.428,0.088,0.621,0.139l2.145,0.57l-0.219,0.824
		l-4.777-1.27L110.334,84.383z"/>
	<path fill="#FFFFFF" d="M116.609,85.814l1.693,0.449l1.447-5.451l-1.346-0.357l0.162-0.615c0.357,0.029,0.674,0.031,0.947,0.01
		c0.275-0.021,0.529-0.068,0.764-0.139l0.73,0.193l-1.756,6.611l1.531,0.406l-0.209,0.789l-4.176-1.109L116.609,85.814z"/>
	<path fill="#FFFFFF" d="M122.442,86.568c0.163,0.291,0.37,0.566,0.62,0.822c0.25,0.258,0.596,0.443,1.037,0.561
		c0.447,0.119,0.848,0.096,1.197-0.072c0.352-0.168,0.582-0.461,0.693-0.879c0.059-0.215,0.07-0.426,0.037-0.629
		s-0.125-0.395-0.275-0.576c-0.15-0.18-0.368-0.346-0.651-0.494c-0.282-0.15-0.645-0.283-1.085-0.4l0.193-0.73
		c0.395,0.104,0.734,0.156,1.02,0.158s0.527-0.037,0.727-0.117s0.355-0.195,0.471-0.348c0.115-0.15,0.197-0.324,0.25-0.518
		c0.096-0.363,0.058-0.68-0.115-0.947c-0.172-0.271-0.456-0.457-0.851-0.563c-0.31-0.082-0.612-0.088-0.907-0.018
		c-0.297,0.07-0.586,0.188-0.871,0.354l-0.35-0.738c0.357-0.195,0.732-0.334,1.123-0.416c0.39-0.084,0.805-0.066,1.246,0.051
		c0.324,0.086,0.61,0.207,0.859,0.365c0.248,0.156,0.449,0.34,0.605,0.551c0.154,0.211,0.255,0.447,0.302,0.707
		c0.046,0.262,0.03,0.543-0.05,0.844c-0.119,0.449-0.341,0.783-0.664,1.004c-0.324,0.221-0.707,0.355-1.149,0.402l-0.013,0.047
		c0.209,0.113,0.396,0.248,0.563,0.404c0.166,0.154,0.301,0.332,0.406,0.529c0.104,0.197,0.17,0.41,0.195,0.641
		s0.004,0.473-0.063,0.729c-0.086,0.324-0.229,0.602-0.426,0.832c-0.197,0.229-0.43,0.404-0.698,0.527s-0.563,0.193-0.882,0.213
		c-0.32,0.018-0.65-0.018-0.99-0.107c-0.293-0.078-0.555-0.18-0.783-0.301c-0.229-0.123-0.43-0.26-0.605-0.41
		s-0.326-0.307-0.451-0.473c-0.126-0.166-0.232-0.336-0.318-0.508L122.442,86.568z"/>
</g>
<g>
	<path fill="#FFFFFF" d="M-0.349,96.838c-0.083-0.602-0.121-1.186-0.115-1.752c0.007-0.566,0.066-1.131,0.175-1.69
		c0.108-0.561,0.266-1.148,0.471-1.763l-3.648,1.114l-0.249-0.814l4.717-1.44l0.179,0.585c-0.269,0.685-0.461,1.319-0.578,1.907
		c-0.117,0.589-0.177,1.169-0.177,1.742C0.424,95.3,0.477,95.89,0.582,96.498c0.106,0.607,0.253,1.271,0.439,1.992l-0.976,0.298
		C-0.133,98.09-0.266,97.44-0.349,96.838z"/>
	<path fill="#FFFFFF" d="M6.618,96.932c-0.742,0.227-1.42,0.074-2.034-0.458c-0.614-0.531-1.108-1.413-1.485-2.646
		c-0.376-1.231-0.456-2.231-0.239-3c0.218-0.77,0.696-1.267,1.439-1.493c0.733-0.225,1.407-0.079,2.016,0.438
		c0.609,0.517,1.102,1.391,1.478,2.623c0.376,1.231,0.459,2.239,0.246,3.023C7.827,96.203,7.353,96.708,6.618,96.932z M6.388,96.175
		c0.214-0.065,0.389-0.184,0.524-0.354c0.137-0.172,0.229-0.4,0.279-0.688c0.051-0.287,0.051-0.634,0.003-1.042
		c-0.05-0.407-0.156-0.879-0.32-1.414C6.71,92.14,6.536,91.691,6.351,91.33s-0.378-0.645-0.578-0.846
		c-0.2-0.203-0.402-0.336-0.611-0.397c-0.206-0.063-0.417-0.061-0.631,0.005c-0.215,0.065-0.393,0.183-0.533,0.351
		c-0.142,0.169-0.238,0.393-0.29,0.672c-0.054,0.28-0.056,0.621-0.008,1.025c0.049,0.403,0.154,0.873,0.317,1.408
		c0.328,1.071,0.697,1.81,1.109,2.215S5.959,96.306,6.388,96.175z"/>
	<path fill="#FFFFFF" d="M12.323,95.19c-0.743,0.227-1.421,0.074-2.035-0.458s-1.109-1.414-1.485-2.646
		c-0.376-1.232-0.456-2.232-0.239-3.001c0.218-0.769,0.697-1.267,1.439-1.493c0.734-0.224,1.406-0.078,2.016,0.438
		c0.608,0.517,1.102,1.391,1.478,2.622c0.376,1.232,0.458,2.24,0.247,3.023C13.53,94.462,13.057,94.966,12.323,95.19z
		 M12.092,94.433c0.214-0.065,0.389-0.184,0.524-0.354c0.137-0.172,0.229-0.4,0.279-0.688c0.051-0.288,0.051-0.635,0.002-1.042
		c-0.049-0.408-0.156-0.879-0.319-1.415c-0.163-0.535-0.337-0.984-0.523-1.346c-0.186-0.361-0.378-0.644-0.579-0.846
		c-0.199-0.202-0.402-0.335-0.61-0.396c-0.206-0.063-0.417-0.061-0.631,0.005c-0.215,0.065-0.393,0.182-0.534,0.351
		c-0.141,0.168-0.236,0.392-0.289,0.672c-0.054,0.279-0.056,0.621-0.008,1.025c0.049,0.402,0.154,0.872,0.317,1.408
		c0.327,1.071,0.696,1.809,1.109,2.214C11.242,94.427,11.663,94.563,12.092,94.433z"/>
	<path fill="#FFFFFF" d="M15.795,93.126l1.676-0.512l-1.647-5.394l-1.332,0.406l-0.186-0.608c0.318-0.164,0.588-0.328,0.81-0.492
		c0.223-0.164,0.414-0.337,0.575-0.52l0.723-0.221l1.998,6.541l1.516-0.463l0.238,0.78l-4.132,1.262L15.795,93.126z"/>
</g>
<g>
</g>
<g>
</g>
<g>
</g>
<g>
</g>
<g>
</g>
<g>
</g>
</svg>
